<svg width="48" height="48" viewBox="0 0 48 48" fill="none" xmlns="http://www.w3.org/2000/svg">
<path d="M0.199951 29.3364C0.199951 25.5182 0.199951 21.7636 0.199951 17.7545C4.08177 17.7545 7.89995 17.7545 11.6545 17.7545C16.4909 17.7545 18.0818 16.1 18.0818 11.2636C18.0818 7.57273 18.0818 3.81818 18.0818 0C22.0272 0 25.7181 0 29.7909 0C29.7909 3.05455 29.7909 6.10909 29.7909 9.22727C29.7909 10.3091 29.7272 11.4545 29.7909 12.5364C29.9181 15.8455 31.7 17.6273 35.009 17.7545C38.3181 17.8182 41.6909 17.7545 45 17.7545C45.8272 17.7545 46.7181 17.7545 47.609 17.7545C47.609 21.7636 47.609 25.5182 47.609 29.5273C43.8545 29.5273 40.1636 29.5273 36.409 29.5273C31.3181 29.5273 29.6636 31.1818 29.6636 36.2091C29.6636 39.8364 29.6636 43.5273 29.6636 47.3455C25.7181 47.3455 21.9636 47.3455 17.9545 47.3455C17.9545 43.5909 17.9545 39.8364 17.9545 36.1455C17.9545 31.1818 16.3 29.5273 11.4 29.5273C7.83632 29.5273 4.27268 29.5273 0.645406 29.4636C0.709043 29.5909 0.581769 29.4636 0.199951 29.3364Z" fill="#00A651"/>
</svg>
